<svg id="Layer_1" data-name="Layer 1" xmlns="http://www.w3.org/2000/svg" xmlns:xlink="http://www.w3.org/1999/xlink" viewBox="0 0 475.04 86.12"><defs><style>.cls-1{fill:url(#linear-gradient);}.cls-2{fill:url(#linear-gradient-2);}.cls-3{fill:url(#linear-gradient-3);}.cls-4{fill:url(#linear-gradient-4);}.cls-5{fill:url(#linear-gradient-5);}.cls-6{fill:url(#linear-gradient-6);}.cls-7{fill:url(#linear-gradient-7);}.cls-8{fill:url(#linear-gradient-8);}.cls-9{fill:url(#linear-gradient-9);}.cls-10{fill:url(#linear-gradient-10);}.cls-11{fill:url(#linear-gradient-11);}.cls-12{fill:url(#linear-gradient-12);}.cls-13{fill:url(#linear-gradient-13);}.cls-14{fill:url(#linear-gradient-14);}.cls-15{fill:url(#linear-gradient-15);}.cls-16{fill:url(#linear-gradient-16);}</style><linearGradient id="linear-gradient" x1="169.58" y1="-60.04" x2="141.35" y2="-8.16" gradientUnits="userSpaceOnUse"><stop offset="0" stop-color="#d564e5"/><stop offset="1" stop-color="#0a225b"/></linearGradient><linearGradient id="linear-gradient-2" x1="195.47" y1="-45.96" x2="167.25" y2="5.93" xlink:href="#linear-gradient"/><linearGradient id="linear-gradient-3" x1="221.27" y1="-31.92" x2="193.04" y2="19.96" xlink:href="#linear-gradient"/><linearGradient id="linear-gradient-4" x1="248.15" y1="-17.29" x2="219.92" y2="34.59" xlink:href="#linear-gradient"/><linearGradient id="linear-gradient-5" x1="272.27" y1="-4.17" x2="244.04" y2="47.71" xlink:href="#linear-gradient"/><linearGradient id="linear-gradient-6" x1="296.85" y1="9.21" x2="268.62" y2="61.09" xlink:href="#linear-gradient"/><linearGradient id="linear-gradient-7" x1="285.48" y1="20.56" x2="316" y2="43.07" gradientUnits="userSpaceOnUse"><stop offset="0" stop-color="#d564e5"/><stop offset="1" stop-color="#0d4bdc"/></linearGradient><linearGradient id="linear-gradient-8" x1="294.23" y1="8.7" x2="324.75" y2="31.2" xlink:href="#linear-gradient-7"/><linearGradient id="linear-gradient-9" x1="301.81" y1="-1.58" x2="332.32" y2="20.93" xlink:href="#linear-gradient-7"/><linearGradient id="linear-gradient-10" x1="316.87" y1="-22.01" x2="347.39" y2="0.5" xlink:href="#linear-gradient-7"/><linearGradient id="linear-gradient-11" x1="322.62" y1="-29.8" x2="353.14" y2="-7.29" xlink:href="#linear-gradient-7"/><linearGradient id="linear-gradient-12" x1="329.71" y1="-39.42" x2="360.23" y2="-16.91" xlink:href="#linear-gradient-7"/><linearGradient id="linear-gradient-13" x1="340.08" y1="-53.48" x2="370.6" y2="-30.97" xlink:href="#linear-gradient-7"/><linearGradient id="linear-gradient-14" x1="14.66" y1="78.41" x2="52.05" y2="31.87" xlink:href="#linear-gradient-7"/><linearGradient id="linear-gradient-15" x1="9.41" y1="79.82" x2="48.66" y2="30.96" gradientTransform="matrix(-1, 0, 0, 1, 86.12, 0)" xlink:href="#linear-gradient-7"/><linearGradient id="linear-gradient-16" x1="17.08" y1="80.53" x2="56.33" y2="31.67" gradientTransform="matrix(-1, 0, 0, 1, 86.12, 0)" xlink:href="#linear-gradient-7"/></defs><title>fc-logo</title><path class="cls-1" d="M105.07,64.78V24.92a.74.74,0,0,1,.74-.74h30.47a.74.74,0,0,1,.74.74v6a.74.74,0,0,1-.74.73H113.64v9.75h14.79a.74.74,0,0,1,.74.73v5.73a.74.74,0,0,1-.74.74H113.64V64.78a.74.74,0,0,1-.74.74h-7.09A.74.74,0,0,1,105.07,64.78Z"/><path class="cls-2" d="M139.15,64.78V35.49a.74.74,0,0,1,.73-.74h6.62a.74.74,0,0,1,.74.74v2.63a9.69,9.69,0,0,1,3.57-3,10.29,10.29,0,0,1,4.63-1,15.05,15.05,0,0,1,2,.21,4.78,4.78,0,0,1,1,.3.71.71,0,0,1,.4.65v5.57a.73.73,0,0,1-1,.7,8.94,8.94,0,0,0-1-.25,11.27,11.27,0,0,0-2.18-.21,8.34,8.34,0,0,0-4.34,1.18,8,8,0,0,0-3.1,3.43V64.78a.74.74,0,0,1-.74.74h-6.62A.74.74,0,0,1,139.15,64.78Z"/><path class="cls-3" d="M188.63,61.09a.74.74,0,0,1,0,1.13A19.15,19.15,0,0,1,183.46,65a19.64,19.64,0,0,1-6.64,1.07,17.29,17.29,0,0,1-6.53-1.24A16.49,16.49,0,0,1,165,61.5a15.48,15.48,0,0,1-3.49-5,15.7,15.7,0,0,1-1.26-6.29,16.09,16.09,0,0,1,1.21-6.23,15.4,15.4,0,0,1,8.38-8.47,15.75,15.75,0,0,1,6.23-1.24,14.45,14.45,0,0,1,6,1.27A15,15,0,0,1,187,38.94a15.61,15.61,0,0,1,3.19,5.23,18.39,18.39,0,0,1,1.15,6.58v1.39a.73.73,0,0,1-.73.74H168.43a8.7,8.7,0,0,0,3.19,4.67,9,9,0,0,0,5.55,1.77,11,11,0,0,0,3.78-.65,8.78,8.78,0,0,0,2.52-1.4.75.75,0,0,1,1,0Zm-12.7-20.2a7.17,7.17,0,0,0-4.78,1.69,8.69,8.69,0,0,0-2.78,4.51h15.06a8.85,8.85,0,0,0-2.8-4.45A7,7,0,0,0,175.93,40.89Z"/><path class="cls-4" d="M223.47,61.09a.73.73,0,0,1-.05,1.13A19.1,19.1,0,0,1,218.3,65a19.64,19.64,0,0,1-6.64,1.07,17.25,17.25,0,0,1-6.53-1.24,16.38,16.38,0,0,1-5.25-3.37,15.48,15.48,0,0,1-3.49-5,15.71,15.71,0,0,1-1.27-6.29,16.27,16.27,0,0,1,1.21-6.23A15.69,15.69,0,0,1,211,34.22,14.45,14.45,0,0,1,217,35.49a15.15,15.15,0,0,1,4.84,3.45A15.77,15.77,0,0,1,225,44.17a18.39,18.39,0,0,1,1.15,6.58v1.39a.74.74,0,0,1-.73.74H203.27a8.7,8.7,0,0,0,3.19,4.67A9,9,0,0,0,212,59.32a11,11,0,0,0,3.78-.65,8.78,8.78,0,0,0,2.52-1.4.75.75,0,0,1,1,0Zm-12.7-20.2A7.17,7.17,0,0,0,206,42.58a8.62,8.62,0,0,0-2.78,4.51h15.06a8.91,8.91,0,0,0-2.8-4.45A7,7,0,0,0,210.77,40.89Z"/><path class="cls-5" d="M229.55,64.78V60.06a.76.76,0,0,1,.17-.48l15.3-18H230.4a.73.73,0,0,1-.73-.73V35.49a.74.74,0,0,1,.73-.74h24.28a.74.74,0,0,1,.73.74v4.72a.78.78,0,0,1-.17.48l-15.42,18H255a.73.73,0,0,1,.74.73v5.32a.74.74,0,0,1-.74.74H230.28A.74.74,0,0,1,229.55,64.78Z"/><path class="cls-6" d="M286.59,61.09a.74.74,0,0,1,0,1.13A19.15,19.15,0,0,1,281.42,65a19.64,19.64,0,0,1-6.64,1.07,17.29,17.29,0,0,1-6.53-1.24A16.6,16.6,0,0,1,263,61.5a15.3,15.3,0,0,1-3.48-5,15.54,15.54,0,0,1-1.27-6.29,16.09,16.09,0,0,1,1.21-6.23,15.67,15.67,0,0,1,14.61-9.71,14.42,14.42,0,0,1,6.05,1.27A15.2,15.2,0,0,1,285,38.94a15.75,15.75,0,0,1,3.18,5.23,18.39,18.39,0,0,1,1.16,6.58v1.39a.74.74,0,0,1-.74.74H266.39a8.75,8.75,0,0,0,3.19,4.67,9,9,0,0,0,5.55,1.77,11,11,0,0,0,3.78-.65,8.78,8.78,0,0,0,2.52-1.4.75.75,0,0,1,1,0Zm-12.7-20.2a7.17,7.17,0,0,0-4.78,1.69,8.61,8.61,0,0,0-2.77,4.51h15.05a8.85,8.85,0,0,0-2.8-4.45A7,7,0,0,0,273.89,40.89Z"/><path class="cls-7" d="M318.3,62a18.38,18.38,0,0,0,7.33-1.5,16.77,16.77,0,0,0,5.32-3.6.74.74,0,0,1,1.06,0l1.91,2a.74.74,0,0,1,0,1,22.2,22.2,0,0,1-6.81,4.48,22.63,22.63,0,0,1-8.91,1.8,21.51,21.51,0,0,1-8.42-1.66A21.29,21.29,0,0,1,303,60a20.93,20.93,0,0,1-4.55-6.8,22,22,0,0,1,0-16.71A21,21,0,0,1,303,29.7a21.64,21.64,0,0,1,15.24-6.17,23.14,23.14,0,0,1,9.06,1.8A21.53,21.53,0,0,1,334,29.81a.75.75,0,0,1,0,1l-2,2.11A.74.74,0,0,1,331,33a17,17,0,0,0-5.46-3.69,18.55,18.55,0,0,0-7.35-1.53,16.8,16.8,0,0,0-6.65,1.32,16.62,16.62,0,0,0-5.34,3.61,16.37,16.37,0,0,0-3.54,5.43,18.23,18.23,0,0,0,0,13.52A16.14,16.14,0,0,0,306.23,57,17,17,0,0,0,318.3,62Z"/><path class="cls-8" d="M349.84,66.05A12.11,12.11,0,0,1,342,63.57a8.36,8.36,0,0,1,.15-13c2.13-1.64,5-2.45,8.62-2.45a19.26,19.26,0,0,1,4.58.53,19.51,19.51,0,0,1,4.1,1.47V46.21a6.84,6.84,0,0,0-2-5.35,8.47,8.47,0,0,0-5.84-1.8,16.34,16.34,0,0,0-4.4.62,25.22,25.22,0,0,0-4.21,1.65.74.74,0,0,1-1-.33l-1-2a.74.74,0,0,1,.35-1,31.54,31.54,0,0,1,5.22-1.92,21.54,21.54,0,0,1,5.43-.71q5.61,0,8.65,2.66t3,7.62V64.78a.74.74,0,0,1-.73.74h-2.78a.74.74,0,0,1-.74-.74V62.62a13.81,13.81,0,0,1-4.4,2.57A15.18,15.18,0,0,1,349.84,66.05Zm-6.74-9a4.83,4.83,0,0,0,2.1,4.05,8.82,8.82,0,0,0,5.4,1.56,13.58,13.58,0,0,0,4.84-.82,11.12,11.12,0,0,0,4-2.6V53.65a12.72,12.72,0,0,0-3.93-1.8,17.59,17.59,0,0,0-4.63-.56,9.25,9.25,0,0,0-5.64,1.56A4.93,4.93,0,0,0,343.1,57Z"/><path class="cls-9" d="M371,76.89V36.67a.74.74,0,0,1,.74-.74h2.84a.74.74,0,0,1,.73.74v2.45a12.44,12.44,0,0,1,4.34-2.74,14.87,14.87,0,0,1,5.23-.92,14.49,14.49,0,0,1,5.85,1.18,14.69,14.69,0,0,1,7.88,8.06,15.59,15.59,0,0,1,1.15,6,15.82,15.82,0,0,1-1.15,6A14.74,14.74,0,0,1,384.79,66a14.55,14.55,0,0,1-5-.89,15,15,0,0,1-4.43-2.54V76.89a.73.73,0,0,1-.73.73h-2.9A.74.74,0,0,1,371,76.89ZM384.44,39.3a12.26,12.26,0,0,0-5.17,1.09,10.44,10.44,0,0,0-3.93,3V58.08a10.66,10.66,0,0,0,4,3,12.29,12.29,0,0,0,5.14,1.09,10.41,10.41,0,0,0,7.82-3.28,11.22,11.22,0,0,0,3.16-8.12,11.8,11.8,0,0,0-.86-4.51,11.37,11.37,0,0,0-2.33-3.63,10.81,10.81,0,0,0-3.48-2.43A10.58,10.58,0,0,0,384.44,39.3Z"/><path class="cls-10" d="M408,30.26a2.93,2.93,0,0,1-2.07-5,2.89,2.89,0,0,1,2.07-.86A2.94,2.94,0,0,1,411,27.31a2.89,2.89,0,0,1-.86,2.07A2.8,2.8,0,0,1,408,30.26Zm2.18,6.41V64.78a.74.74,0,0,1-.73.74h-2.9a.74.74,0,0,1-.74-.74V36.67a.74.74,0,0,1,.74-.74h2.9A.74.74,0,0,1,410.18,36.67Z"/><path class="cls-11" d="M422.31,58.9V39.65h-5.64a.74.74,0,0,1-.74-.73V36.67a.74.74,0,0,1,.74-.74h5.64V29a.73.73,0,0,1,.55-.71l2.84-.74a.74.74,0,0,1,.92.71v7.67h8.18a.74.74,0,0,1,.73.74v2.25a.73.73,0,0,1-.73.73h-8.18V57.78a4.59,4.59,0,0,0,1.06,3.4,4.87,4.87,0,0,0,3.48,1,12.31,12.31,0,0,0,2.22-.18,9.7,9.7,0,0,0,1.16-.28.74.74,0,0,1,.94.71v2.28a.73.73,0,0,1-.51.71,11.57,11.57,0,0,1-2,.42,21.07,21.07,0,0,1-2.69.18,8.64,8.64,0,0,1-5.91-1.83A6.75,6.75,0,0,1,422.31,58.9Z"/><path class="cls-12" d="M450.55,66.05a12.1,12.1,0,0,1-7.88-2.48,8.36,8.36,0,0,1,.15-13c2.12-1.64,5-2.45,8.62-2.45a19.18,19.18,0,0,1,4.57.53,19.4,19.4,0,0,1,4.11,1.47V46.21a6.84,6.84,0,0,0-2-5.35,8.49,8.49,0,0,0-5.84-1.8,16.34,16.34,0,0,0-4.4.62,24.89,24.89,0,0,0-4.21,1.65.74.74,0,0,1-1-.33l-1-2a.75.75,0,0,1,.36-1,31.22,31.22,0,0,1,5.22-1.92,21.54,21.54,0,0,1,5.43-.71q5.61,0,8.65,2.66t3,7.62V64.78a.74.74,0,0,1-.73.74h-2.79a.74.74,0,0,1-.73-.74V62.62a13.92,13.92,0,0,1-4.4,2.57A15.24,15.24,0,0,1,450.55,66.05Zm-6.73-9a4.83,4.83,0,0,0,2.1,4.05,8.8,8.8,0,0,0,5.4,1.56,13.58,13.58,0,0,0,4.84-.82,11.12,11.12,0,0,0,4-2.6V53.65a12.72,12.72,0,0,0-3.93-1.8,17.65,17.65,0,0,0-4.63-.56,9.23,9.23,0,0,0-5.64,1.56A4.93,4.93,0,0,0,443.82,57Z"/><path class="cls-13" d="M475,24.1V64.78a.74.74,0,0,1-.74.74h-2.9a.74.74,0,0,1-.73-.74v-40a.74.74,0,0,1,.57-.72l2.9-.66A.73.73,0,0,1,475,24.1Z"/><path class="cls-14" d="M43.06,4.1a39,39,0,1,1-39,39,39,39,0,0,1,39-39m0-4.1A43.06,43.06,0,1,0,86.12,43.06,43.06,43.06,0,0,0,43.06,0Z"/><path class="cls-15" d="M46.44,29.62H57a.78.78,0,0,1,.77.77V55.73a.78.78,0,0,1-.77.77H52.78V73.28A.77.77,0,0,1,52,74h-.57a.76.76,0,0,1-.76-.76V56.5H46.44a.77.77,0,0,1-.76-.77V30.39A.77.77,0,0,1,46.44,29.62Z"/><path class="cls-16" d="M39.68,56.5H29.11a.77.77,0,0,1-.77-.77V30.39a.77.77,0,0,1,.77-.77h4.23V12.84a.77.77,0,0,1,.77-.76h.57a.76.76,0,0,1,.76.76V29.62h4.24a.77.77,0,0,1,.76.77V55.73A.77.77,0,0,1,39.68,56.5Z"/></svg>