<svg id="Capa_1" data-name="Capa 1" xmlns="http://www.w3.org/2000/svg" xmlns:xlink="http://www.w3.org/1999/xlink" viewBox="0 0 512 512"><defs><style>.cls-1{fill:url(#linear-gradient);}.cls-2{fill:url(#linear-gradient-2);}.cls-3{fill:url(#linear-gradient-3);}.cls-4{fill:url(#linear-gradient-4);}.cls-5{fill:url(#linear-gradient-5);}.cls-6{fill:url(#linear-gradient-6);}.cls-7{fill:url(#linear-gradient-7);}.cls-8{fill:#d564e5;}.cls-9{fill:#0d4bdc;}</style><linearGradient id="linear-gradient" x1="250.43" y1="219.29" x2="211.36" y2="113.25" gradientUnits="userSpaceOnUse"><stop offset="0" stop-color="#d564e5"/><stop offset="1" stop-color="#0a225b"/></linearGradient><linearGradient id="linear-gradient-2" x1="78.06" y1="282.8" x2="38.99" y2="176.75" gradientTransform="translate(133.19 6.84) rotate(33.99)" xlink:href="#linear-gradient"/><linearGradient id="linear-gradient-3" x1="237.58" y1="54.47" x2="237.58" y2="363.93" xlink:href="#linear-gradient"/><linearGradient id="linear-gradient-4" x1="253.63" y1="54.47" x2="253.63" y2="363.93" xlink:href="#linear-gradient"/><linearGradient id="linear-gradient-5" x1="253.61" y1="54.47" x2="253.61" y2="363.93" xlink:href="#linear-gradient"/><linearGradient id="linear-gradient-6" x1="448.08" y1="54.47" x2="448.08" y2="363.93" xlink:href="#linear-gradient"/><linearGradient id="linear-gradient-7" x1="231.55" y1="54.47" x2="231.55" y2="363.93" xlink:href="#linear-gradient"/></defs><title>icon-short-term</title><rect class="cls-1" x="213.54" y="135.77" width="24.05" height="32.06"/><rect class="cls-2" x="43.39" y="205.29" width="24.04" height="32.06" transform="translate(-114.26 68.79) rotate(-33.99)"/><path class="cls-3" d="M237.58,368.72a7.52,7.52,0,0,0-7.52,7.52V504.49a7.52,7.52,0,0,0,15,0V376.24A7.51,7.51,0,0,0,237.58,368.72Z"/><path class="cls-4" d="M487.51,379.77a7.51,7.51,0,1,0,13.25-7.08,280.15,280.15,0,0,0-494.25-.11,7.52,7.52,0,0,0,13.26,7.09q4.83-9.06,10.31-17.62l14.08,10A247,247,0,0,0,5.63,504.48,7.51,7.51,0,0,0,13.14,512h0a7.52,7.52,0,0,0,7.51-7.5c.17-128.46,104.68-233,233-233s232.78,104.51,233,233a7.52,7.52,0,0,0,7.52,7.5h0a7.51,7.51,0,0,0,7.5-7.52,246.88,246.88,0,0,0-38.53-132.41l14.08-10Q482.63,370.68,487.51,379.77ZM261.12,256.63v-17a264.81,264.81,0,0,1,110.55,27.57l-8.09,15.17A245.91,245.91,0,0,0,261.12,256.63ZM143.64,282.32l-8.09-15.17A264.89,264.89,0,0,1,246.1,239.58v17A246.07,246.07,0,0,0,143.64,282.32Zm-91,77.3-14.09-10a264.84,264.84,0,0,1,83.78-75.39l8.1,15.19A250.11,250.11,0,0,0,52.6,359.62Zm402,0a250,250,0,0,0-77.79-70.21l8.1-15.19a264.84,264.84,0,0,1,83.78,75.39Z"/><path class="cls-5" d="M253.61,312.61C148,312.61,61.93,398.68,61.74,504.47a7.52,7.52,0,0,0,7.5,7.53h0a7.51,7.51,0,0,0,7.52-7.5,176.88,176.88,0,0,1,57.11-129.91v129.9a7.52,7.52,0,0,0,15,0V362.16a176.78,176.78,0,0,1,17-11.15V504.49a7.52,7.52,0,0,0,15,0V343.3a175,175,0,0,1,49.1-14.08v23a7.52,7.52,0,1,0,15,0V327.85q4.23-.21,8.51-.21t8.52.21V504.49a7.52,7.52,0,0,0,15,0V329.22a175.13,175.13,0,0,1,49.1,14.08V504.49a7.52,7.52,0,0,0,15,0V351a176.78,176.78,0,0,1,17,11.15V504.49a7.52,7.52,0,0,0,15,0V374.59A176.88,176.88,0,0,1,430.46,504.5,7.5,7.5,0,0,0,438,512h0a7.52,7.52,0,0,0,7.5-7.53C445.29,398.68,359.22,312.61,253.61,312.61Z"/><path class="cls-6" d="M430.37,393.78A7.5,7.5,0,0,0,427.63,404,200.83,200.83,0,0,1,454.5,504.49a7.52,7.52,0,0,0,15,0,215.86,215.86,0,0,0-28.89-108A7.52,7.52,0,0,0,430.37,393.78Z"/><path class="cls-7" d="M253.61,303.59A199.82,199.82,0,0,1,412,380.86a7.52,7.52,0,1,0,11.84-9.26A215.93,215.93,0,0,0,37.69,504.49a7.52,7.52,0,0,0,15,0C52.72,393.71,142.84,303.59,253.61,303.59Z"/><path class="cls-8" d="M293.69,135.77h-16v32.06H213.53V135.77H181.47v40.07a32.07,32.07,0,0,0,32.06,32.07H325.75V167.83A32.06,32.06,0,0,0,293.69,135.77Zm-63.12,63.62h-1a7.52,7.52,0,0,1,0-15h1a7.52,7.52,0,0,1,0,15Zm24,0h-1a7.52,7.52,0,0,1,0-15h1a7.52,7.52,0,1,1,0,15Zm24.05,0h-1a7.52,7.52,0,1,1,0-15h1a7.52,7.52,0,0,1,0,15Z"/><path class="cls-8" d="M147.46,178.6A32.07,32.07,0,0,0,103,169.94l-13.29,9,17.92,26.59L54.41,241.34,36.49,214.75,9.91,232.68l22.4,33.23a32.07,32.07,0,0,0,44.51,8.66l93-62.74ZM86.18,258l-.83.56A7.51,7.51,0,1,1,77,246.08l.83-.56A7.51,7.51,0,0,1,86.18,258Zm19.94-13.44-.83.56a7.52,7.52,0,0,1-8.41-12.46l.83-.56a7.52,7.52,0,1,1,8.41,12.46Zm19.94-13.45-.83.56a7.51,7.51,0,0,1-8.41-12.45l.83-.56a7.51,7.51,0,1,1,8.41,12.45Z"/><path class="cls-9" d="M93.3,94.52h80.15a31.56,31.56,0,1,0,0-63.12H173v-.51a30.89,30.89,0,1,0-61.78,0c0,.44,0,.88,0,1.32A23.63,23.63,0,0,0,95,47.43H93.3a23.55,23.55,0,1,0,0,47.09Zm0-32.06h8a7.52,7.52,0,0,0,7.52-7.52,8.53,8.53,0,0,1,8.51-8.52c1.63,0,3.08.45,4.71,0a7.51,7.51,0,0,0,5.17-10,15.86,15.86,0,1,1,30.7-5.62v9.39a7.52,7.52,0,0,0,10,7.09,16.53,16.53,0,1,1,5.51,32.12H93.3a8.52,8.52,0,1,1,0-17Z"/><path class="cls-9" d="M397.89,214.75h80.16a31.56,31.56,0,0,0,0-63.12h-.5v-.5a30.9,30.9,0,1,0-61.79,0c0,.44,0,.88,0,1.31a23.66,23.66,0,0,0-16.17,15.22h-1.73a23.55,23.55,0,0,0,0,47.09Zm0-32.06h8a7.51,7.51,0,0,0,7.51-7.51,8.53,8.53,0,0,1,8.52-8.52c1.58,0,3,.44,4.58.05a7.63,7.63,0,0,0,5.3-10,15.87,15.87,0,1,1,30.7-5.62v9.39a7.59,7.59,0,0,0,10,7.08,16.53,16.53,0,1,1,5.51,32.12H397.89a8.52,8.52,0,0,1,0-17Z"/></svg>