<svg id="Capa_1" data-name="Capa 1" xmlns="http://www.w3.org/2000/svg" xmlns:xlink="http://www.w3.org/1999/xlink" viewBox="0 0 512 512"><defs><style>.cls-1{fill:url(#linear-gradient);}.cls-2{fill:url(#linear-gradient-2);}.cls-3{fill:url(#linear-gradient-3);}</style><linearGradient id="linear-gradient" x1="256.03" y1="29.99" x2="256.03" y2="278.78" gradientUnits="userSpaceOnUse"><stop offset="0" stop-color="#d564e5"/><stop offset="1" stop-color="#0a225b"/></linearGradient><linearGradient id="linear-gradient-2" x1="170.98" y1="-59.05" x2="170.98" y2="246.22" xlink:href="#linear-gradient"/><linearGradient id="linear-gradient-3" x1="319.59" y1="29.3" x2="319.59" y2="240.7" gradientUnits="userSpaceOnUse"><stop offset="0" stop-color="#d564e5"/><stop offset="1" stop-color="#0d4bdc"/></linearGradient></defs><title>icon-expand</title><path class="cls-1" d="M415.21,89.65H96.79a7,7,0,0,0-7.05,7V225.42a7,7,0,0,0,7.05,7.05,7.12,7.12,0,0,0,7.1-7.05V103.81H408.22V408.13H285.8a7.11,7.11,0,1,0,0,14.22H415.21a7.11,7.11,0,0,0,7.11-7.11V96.76A7.11,7.11,0,0,0,415.21,89.65Z"/><path class="cls-2" d="M89.68,415.18a7.09,7.09,0,0,0,7,7.11H245.18a7.11,7.11,0,0,0,7.11-7.11V266.79a7.1,7.1,0,0,0-7.11-7.1H96.79a7,7,0,0,0-7.05,7.1V415.18Zm14.16-141.34H238.13V408.13H103.84Z"/><path class="cls-3" d="M268.46,243.51a7.12,7.12,0,0,0,10.06,0l80.07-80.14v46.17a7.11,7.11,0,0,0,14.21,0V146.33a7.1,7.1,0,0,0-7.1-7.11H302.43a7.11,7.11,0,0,0,0,14.22H348.6l-80.14,80.07A7.06,7.06,0,0,0,268.46,243.51Z"/></svg>