<svg id="Capa_1" data-name="Capa 1" xmlns="http://www.w3.org/2000/svg" xmlns:xlink="http://www.w3.org/1999/xlink" viewBox="0 0 512 512"><defs><style>.cls-1{fill:url(#linear-gradient);}.cls-2{fill:url(#linear-gradient-2);}</style><linearGradient id="linear-gradient" x1="256" y1="210.47" x2="256" y2="64.5" gradientUnits="userSpaceOnUse"><stop offset="0" stop-color="#d564e5"/><stop offset="1" stop-color="#0a225b"/></linearGradient><linearGradient id="linear-gradient-2" x1="256" y1="102.37" x2="256" y2="315.93" gradientUnits="userSpaceOnUse"><stop offset="0" stop-color="#d564e5"/><stop offset="1" stop-color="#0d4bdc"/></linearGradient></defs><title>emotions</title><path class="cls-1" d="M117,104.83a22,22,0,0,0,21.77,18.64,22.26,22.26,0,0,0,6.59-1l3.94-1.23h0L256,87.21l106.68,34,4,1.25a22,22,0,1,0,13.12-42L329.7,64.88l50.08-15.65A22,22,0,1,0,366.6,7.28L256,41.84,145.35,7.28a22,22,0,0,0-13.09,41.94l50.07,15.66L132.22,80.52A22,22,0,0,0,117,104.83ZM371,21.26a7.34,7.34,0,1,1,4.4,14l-70.27,22-24.6-7.73Zm-234.38,14a7.33,7.33,0,0,1,4.4-14L375.39,94.5a7.33,7.33,0,0,1-4.4,14Zm0,59.23,70.27-22,24.63,7.69-73.42,23-17,5.28a7.35,7.35,0,0,1-4.52-14Z"/><path class="cls-2" d="M408.72,406.63l-28.37-97.49a25.68,25.68,0,0,0-12.62-15.56,24.49,24.49,0,0,0-9.33-2.75V119.88l-14.65-4.68V294.29a26.58,26.58,0,0,0-11.36,30l21.29,73.24-62,21.83a22.91,22.91,0,0,0-4.19,1.9c-.74-.39-1.47-.74-2.2-1.07v-29c18.72-13.32,29.3-38.87,29.3-63.86,0-35.81-17.7-55.83-51.27-58.31V89.55L256,87.21l-7.32,2.34V269c-33.58,2.48-51.27,22.5-51.27,58.31,0,25,10.57,50.54,29.29,63.86v29.05c-.73.35-1.46.68-2.19,1.06a22.83,22.83,0,0,0-4.09-1.86l-62.1-21.86,21.24-73.24a26.59,26.59,0,0,0-11.34-30.07v-179l-14.61,4.67V290.83a24.38,24.38,0,0,0-9.33,2.75,25.75,25.75,0,0,0-12.65,15.62l-28.34,97.41a26.17,26.17,0,0,0,16,32.27l78.16,27.43v29.5a7.33,7.33,0,0,0,7.32,7.33H307.27a7.33,7.33,0,0,0,7.33-7.33v-29.5l78.17-27.45A26.16,26.16,0,0,0,408.72,406.63ZM212.06,327.35c0-30.39,13.55-43.94,43.94-43.94S300,297,300,327.35C300,356.16,283.51,386,256,386S212.06,356.16,212.06,327.35Zm58.59,71v17.43a51.36,51.36,0,0,0-7.32-.59H248.68a51.38,51.38,0,0,0-7.33.59V398.4a49.88,49.88,0,0,0,29.3,0Zm-71,53.15L124.11,425a11.73,11.73,0,0,1-6.76-14.34l28.33-97.37a11.27,11.27,0,0,1,5.44-6.8,9.75,9.75,0,0,1,7.5-.73,11.72,11.72,0,0,1,6.92,14.43l-23.22,79.91a7.33,7.33,0,0,0,4.61,9l64.19,22.61A51.35,51.35,0,0,0,199.64,451.55ZM300,488.49H212.06v-22a36.66,36.66,0,0,1,36.62-36.62h14.65A36.68,36.68,0,0,1,300,466.51ZM387.9,425l-75.5,26.55a51.28,51.28,0,0,0-11.49-19.85l64.2-22.61a7.31,7.31,0,0,0,4.61-8.95l-23.27-80a11.72,11.72,0,0,1,6.84-14.37,9.75,9.75,0,0,1,7.59.69,11.22,11.22,0,0,1,5.43,6.75l28.35,97.42A11.72,11.72,0,0,1,387.9,425Z"/></svg>