<svg id="Capa_1" data-name="Capa 1" xmlns="http://www.w3.org/2000/svg" xmlns:xlink="http://www.w3.org/1999/xlink" viewBox="0 0 512 512"><defs><style>.cls-1{fill:url(#linear-gradient);}.cls-2{fill:url(#linear-gradient-2);}.cls-3{fill:url(#linear-gradient-3);}.cls-4{fill:url(#linear-gradient-4);}.cls-5{fill:url(#linear-gradient-5);}</style><linearGradient id="linear-gradient" x1="365.54" y1="-14.74" x2="365.54" y2="286.47" gradientUnits="userSpaceOnUse"><stop offset="0" stop-color="#d564e5"/><stop offset="1" stop-color="#0a225b"/></linearGradient><linearGradient id="linear-gradient-2" x1="310.99" y1="-14.74" x2="310.99" y2="286.47" xlink:href="#linear-gradient"/><linearGradient id="linear-gradient-3" x1="256.43" y1="-14.74" x2="256.43" y2="286.47" xlink:href="#linear-gradient"/><linearGradient id="linear-gradient-4" x1="256" y1="-14.74" x2="256" y2="286.47" xlink:href="#linear-gradient"/><linearGradient id="linear-gradient-5" x1="119.96" y1="-14.74" x2="119.96" y2="286.47" xlink:href="#linear-gradient"/></defs><title>icon-credit-card</title><rect class="cls-1" x="345.08" y="324.19" width="40.92" height="13.64"/><rect class="cls-2" x="290.53" y="324.19" width="40.92" height="13.64"/><rect class="cls-3" x="235.98" y="324.19" width="40.92" height="13.64"/><path class="cls-4" d="M454.1,193.28,319.17,58.33a20.34,20.34,0,0,0-14.5-6h-.06a20.15,20.15,0,0,0-14.38,6L147.09,201.45H72.31A20.45,20.45,0,0,0,51.86,221.9V412.84A20.45,20.45,0,0,0,72.31,433.3h101l20.35,20.37a20.33,20.33,0,0,0,14.49,6h.06a20.19,20.19,0,0,0,14.39-6L243,433.3H399.64a20.46,20.46,0,0,0,20.46-20.46V256.23l34-34a20.36,20.36,0,0,0,0-29Zm-86.74-67.46-75.63,75.63H233.82L338.4,96.87ZM299.89,68a6.72,6.72,0,0,1,9.5-.12l.12.12,19.25,19.27L214.53,201.45H166.38ZM213,444.05a6.59,6.59,0,0,1-4.77,2.05,6.79,6.79,0,0,1-4.86-2.05L192.64,433.3h31.1Zm193.48-31.21a6.82,6.82,0,0,1-6.82,6.82H72.31a6.82,6.82,0,0,1-6.82-6.82V317.37h341Zm0-109.11h-341V262.82h341Zm0-54.55h-341V221.9a6.83,6.83,0,0,1,6.82-6.82H399.64a6.83,6.83,0,0,1,6.82,6.82Zm38-36.6h0L420.1,237v-15a20.46,20.46,0,0,0-20.46-20.45H311l66-66,67.46,67.47a6.82,6.82,0,0,1,2.05,4.87A6.66,6.66,0,0,1,444.46,212.58Z"/><path class="cls-5" d="M117.26,406.21a28.26,28.26,0,0,0,2.79-2.79A27,27,0,0,0,155.94,408a27.72,27.72,0,0,0,11.84-22.47,27.27,27.27,0,0,0-27.27-27.28,20.23,20.23,0,0,0-4,.34l-.18.05h-.2a26.92,26.92,0,0,0-16,9.05,27.28,27.28,0,1,0-2.79,38.48Zm21.52-34.14a7.73,7.73,0,0,1,1.73-.14,13.63,13.63,0,0,1,13.63,13.64,13.25,13.25,0,0,1-2.68,8c-.24.34-.43.69-.71,1-.05.06-.12.09-.17.15a13.56,13.56,0,1,1-11.8-22.67Zm-39.19-.14A13.64,13.64,0,1,1,86,385.57,13.64,13.64,0,0,1,99.59,371.93Z"/></svg>