<svg id="Capa_1" data-name="Capa 1" xmlns="http://www.w3.org/2000/svg" xmlns:xlink="http://www.w3.org/1999/xlink" viewBox="0 0 512 512"><defs><style>.cls-1{fill:url(#linear-gradient);}.cls-2{fill:url(#linear-gradient-2);}.cls-3{fill:none;stroke-linecap:round;stroke-linejoin:round;stroke-width:13px;stroke-dasharray:9.9 30.7;stroke:url(#linear-gradient-3);}</style><linearGradient id="linear-gradient" x1="246.1" y1="-5.54" x2="246.1" y2="259.28" gradientUnits="userSpaceOnUse"><stop offset="0" stop-color="#d564e5"/><stop offset="1" stop-color="#0a225b"/></linearGradient><linearGradient id="linear-gradient-2" x1="270.98" y1="-5.54" x2="270.98" y2="259.28" xlink:href="#linear-gradient"/><linearGradient id="linear-gradient-3" x1="106.43" y1="434.25" x2="405.57" y2="77.75" gradientUnits="userSpaceOnUse"><stop offset="0" stop-color="#d564e5"/><stop offset="1" stop-color="#0d4bdc"/></linearGradient></defs><title>icon-wallet</title><path class="cls-1" d="M322.57,127.66a19.55,19.55,0,0,0-13.21,5.55l.57-.58-19.71-19.71a41.6,41.6,0,0,0-58.58,0L103,241.55a41.59,41.59,0,0,0,0,58.57l99,99a41.59,41.59,0,0,0,58.57,0L389.18,270.45a41.59,41.59,0,0,0,0-58.57L369.27,192l-.57.58a19.61,19.61,0,0,0,5.55-13.21,19.09,19.09,0,0,0-5.55-13.21l-32.93-32.92A19.53,19.53,0,0,0,322.57,127.66Zm55.89,94.56a26.79,26.79,0,0,1,0,37.51L249.83,388.36a26.8,26.8,0,0,1-37.52,0l-98.77-98.77a26.82,26.82,0,0,1,0-37.51L242.17,123.45a26.8,26.8,0,0,1,37.52,0l19.71,19.71L240.07,202.5A41.39,41.39,0,0,0,228,231.4a40.92,40.92,0,0,0,12.06,28.91l1.34,1.34a41.42,41.42,0,0,0,28.9,12.06,40.89,40.89,0,0,0,28.9-12.06l59.34-59.34Zm-20.29-45.56h0a4.15,4.15,0,0,1,1.15,2.68,3.5,3.5,0,0,1-1.15,2.68l-69.29,69.29a25.87,25.87,0,0,1-36.75,0L250.79,250a25.87,25.87,0,0,1,0-36.75l69.29-69.29a4.1,4.1,0,0,1,2.68-1.15,3.47,3.47,0,0,1,2.68,1.15Z"/><path class="cls-2" d="M262.46,222.22a11.91,11.91,0,0,0,16.85,16.84,13.06,13.06,0,0,0,3.63-8.61,12.07,12.07,0,0,0-3.63-8.62,13.07,13.07,0,0,0-8.62-3.63A15.83,15.83,0,0,0,262.46,222.22Z"/><circle class="cls-3" cx="256" cy="256" r="226.18"/></svg>