<svg id="Capa_1" data-name="Capa 1" xmlns="http://www.w3.org/2000/svg" xmlns:xlink="http://www.w3.org/1999/xlink" viewBox="0 0 512 512"><defs><style>.cls-1{fill:url(#linear-gradient);}.cls-2{fill:url(#linear-gradient-2);}.cls-3{fill:url(#linear-gradient-3);}.cls-4{fill:url(#linear-gradient-4);}.cls-5{fill:url(#linear-gradient-5);}.cls-6{fill:url(#linear-gradient-6);}.cls-7{fill:url(#linear-gradient-7);}.cls-8{fill:url(#linear-gradient-8);}.cls-9{fill:url(#linear-gradient-9);}.cls-10{fill:url(#linear-gradient-10);}.cls-11{fill:url(#linear-gradient-11);}</style><linearGradient id="linear-gradient" x1="68.71" y1="29.12" x2="68.71" y2="409.98" gradientUnits="userSpaceOnUse"><stop offset="0" stop-color="#d564e5"/><stop offset="1" stop-color="#0a225b"/></linearGradient><linearGradient id="linear-gradient-2" x1="193.57" y1="19.95" x2="193.57" y2="408.67" xlink:href="#linear-gradient"/><linearGradient id="linear-gradient-3" x1="151.75" y1="32.08" x2="151.75" y2="410.4" xlink:href="#linear-gradient"/><linearGradient id="linear-gradient-4" x1="318.43" y1="24.64" x2="318.43" y2="409.34" xlink:href="#linear-gradient"/><linearGradient id="linear-gradient-5" x1="443.29" y1="16.54" x2="443.29" y2="408.18" xlink:href="#linear-gradient"/><linearGradient id="linear-gradient-6" x1="193.57" y1="293.87" x2="193.57" y2="98.07" gradientUnits="userSpaceOnUse"><stop offset="0" stop-color="#d564e5"/><stop offset="1" stop-color="#0d4bdc"/></linearGradient><linearGradient id="linear-gradient-7" x1="408.95" y1="293.87" x2="408.95" y2="98.07" xlink:href="#linear-gradient-6"/><linearGradient id="linear-gradient-8" x1="183.81" y1="2.43" x2="183.81" y2="406.16" xlink:href="#linear-gradient"/><linearGradient id="linear-gradient-9" x1="58.86" y1="2.43" x2="58.86" y2="406.16" xlink:href="#linear-gradient"/><linearGradient id="linear-gradient-10" x1="433.46" y1="2.43" x2="433.46" y2="406.16" xlink:href="#linear-gradient"/><linearGradient id="linear-gradient-11" x1="308.51" y1="2.43" x2="308.51" y2="406.16" xlink:href="#linear-gradient"/></defs><title>icon-performance</title><path class="cls-1" d="M96.27,307.09H41.15A21.2,21.2,0,0,0,20,328.26V466.72a6.92,6.92,0,1,0,13.83,0V328.26a7.34,7.34,0,0,1,7.34-7.34H96.27a7.35,7.35,0,0,1,7.35,7.34V466.72a6.92,6.92,0,1,0,13.83,0V328.26A21.2,21.2,0,0,0,96.27,307.09Z"/><path class="cls-2" d="M221.13,214.71H166a21.2,21.2,0,0,0-21.17,21.17v63.25a6.92,6.92,0,0,0,13.83,0V235.88a7.34,7.34,0,0,1,7.34-7.34h55.12a7.35,7.35,0,0,1,7.35,7.34V466.72a6.92,6.92,0,1,0,13.83,0V235.88A21.2,21.2,0,0,0,221.13,214.71Z"/><path class="cls-3" d="M151.75,324.72a6.91,6.91,0,0,0-6.91,6.92V466.72a6.92,6.92,0,1,0,13.83,0V331.64A6.92,6.92,0,0,0,151.75,324.72Z"/><path class="cls-4" d="M346,271.43H290.87a21.2,21.2,0,0,0-21.18,21.17V466.72a6.92,6.92,0,1,0,13.83,0V292.6a7.35,7.35,0,0,1,7.35-7.34H346a7.34,7.34,0,0,1,7.34,7.34V466.72a6.92,6.92,0,1,0,13.83,0V292.6A21.2,21.2,0,0,0,346,271.43Z"/><path class="cls-5" d="M470.85,149.67H415.73a21.2,21.2,0,0,0-21.18,21.18V466.72a6.92,6.92,0,1,0,13.83,0V170.85a7.36,7.36,0,0,1,7.35-7.35h55.12a7.35,7.35,0,0,1,7.34,7.35V466.72a6.92,6.92,0,1,0,13.83,0V170.85A21.2,21.2,0,0,0,470.85,149.67Z"/><path class="cls-6" d="M68.71,248.78a24.62,24.62,0,0,0,22.23-35.24l81.23-72.73a35.54,35.54,0,0,0,50.5-8L294,164.56c-2.16,13.88,9.71,28.14,24.41,27.91a24.64,24.64,0,1,0-18.79-40.54L228.3,120.22a35.14,35.14,0,0,0,.89-7.86,35.62,35.62,0,1,0-66.25,18.15L81.71,203.24a24.63,24.63,0,1,0-13,45.54ZM318.43,157a10.81,10.81,0,1,1-10.81,10.8A10.81,10.81,0,0,1,318.43,157ZM193.57,90.57a21.79,21.79,0,1,1-21.79,21.79A21.81,21.81,0,0,1,193.57,90.57ZM68.71,213.34a10.81,10.81,0,1,1-10.8,10.8A10.82,10.82,0,0,1,68.71,213.34Z"/><path class="cls-7" d="M356.9,142.46a6.88,6.88,0,0,0,4.44-1.62l68.29-57.36a24.65,24.65,0,1,0-8.89-10.58l-68.29,57.35a6.91,6.91,0,0,0,4.45,12.21Zm86.39-90.27A10.81,10.81,0,1,1,432.48,63,10.82,10.82,0,0,1,443.29,52.19Z"/><path class="cls-8" d="M183.81,412.1A6.91,6.91,0,0,0,176.9,419v47.7a6.91,6.91,0,1,0,13.82,0V419a6.91,6.91,0,0,0-6.91-6.92Z"/><path class="cls-9" d="M58.86,412.1A6.91,6.91,0,0,0,52,419v47.7a6.91,6.91,0,1,0,13.82,0V419a6.91,6.91,0,0,0-6.91-6.92Z"/><path class="cls-10" d="M433.46,412.1a6.92,6.92,0,0,0-6.92,6.92v47.7a6.92,6.92,0,1,0,13.83,0V419a6.91,6.91,0,0,0-6.91-6.92Z"/><path class="cls-11" d="M308.51,412.1a6.92,6.92,0,0,0-6.92,6.92v47.7a6.92,6.92,0,1,0,13.83,0V419a6.91,6.91,0,0,0-6.91-6.92Z"/></svg>