<svg id="Capa_1" data-name="Capa 1" xmlns="http://www.w3.org/2000/svg" xmlns:xlink="http://www.w3.org/1999/xlink" viewBox="0 0 512 512"><defs><style>.cls-1{fill:url(#linear-gradient);}.cls-2{fill:#d564e5;}.cls-3{fill:url(#linear-gradient-2);}</style><linearGradient id="linear-gradient" x1="256" y1="217.02" x2="256" y2="369.47" gradientUnits="userSpaceOnUse"><stop offset="0" stop-color="#d564e5"/><stop offset="1" stop-color="#0a225b"/></linearGradient><linearGradient id="linear-gradient-2" x1="256" y1="68.38" x2="256" y2="341.57" gradientUnits="userSpaceOnUse"><stop offset="0" stop-color="#d564e5"/><stop offset="1" stop-color="#0d4bdc"/></linearGradient></defs><title>Artboard 1</title><path class="cls-1" d="M256,301.45a78.07,78.07,0,1,0,78.06,78.07A78.06,78.06,0,0,0,256,301.45Zm0,141.94a63.88,63.88,0,1,1,63.87-63.87A63.87,63.87,0,0,1,256,443.39Z"/><path class="cls-2" d="M85.68,92.73a28.39,28.39,0,1,0,28.38,28.39c0-.66,0-1.31-.07-2l33-11c.53.81,1.1,1.6,1.7,2.35a28.33,28.33,0,0,0,39.83,4.38l41.21,30.9a28.38,28.38,0,1,0,50.09-4.55l47.88-51.89A28.36,28.36,0,0,0,365,79.77l33,11c0,.64-.07,1.29-.07,2a28.36,28.36,0,1,0,4.57-15.42l-33-11c0-.65.08-1.3.08-2a28.38,28.38,0,1,0-52.24,15.36L269.43,131.6a28.3,28.3,0,0,0-31.14,2.85l-41.21-30.9a28.39,28.39,0,1,0-54.63-10.82c0,.66,0,1.32.08,2l-33,11a28.4,28.4,0,0,0-23.81-13Zm326.45,0a14.2,14.2,0,1,1,14.19,14.2A14.19,14.19,0,0,1,412.13,92.73Zm-71-14.19a14.2,14.2,0,1,1,14.2-14.19A14.19,14.19,0,0,1,341.16,78.54Zm-99.35,78.07A14.19,14.19,0,1,1,256,170.8,14.19,14.19,0,0,1,241.81,156.61ZM156.64,92.73a14.2,14.2,0,1,1,14.2,14.2A14.2,14.2,0,0,1,156.64,92.73ZM71.48,121.12a14.2,14.2,0,1,1,14.2,14.19A14.19,14.19,0,0,1,71.48,121.12Z"/><path class="cls-3" d="M468.9,315.64H454.71V128a7.1,7.1,0,0,0-7.1-7.1H405a7.09,7.09,0,0,0-7.09,7.1V315.64H369.55V99.39a7.1,7.1,0,0,0-7.1-7.1H319.87a7.1,7.1,0,0,0-7.1,7.1V289.51a105.84,105.84,0,0,0-28.38-12.6V191.13a7.1,7.1,0,0,0-7.1-7.1H234.71a7.1,7.1,0,0,0-7.1,7.1v85.78a105.84,105.84,0,0,0-28.38,12.6V129a7.1,7.1,0,0,0-7.1-7.1H149.55a7.1,7.1,0,0,0-7.1,7.1V315.64H114.06v-159a7.09,7.09,0,0,0-7.09-7.1H64.39a7.1,7.1,0,0,0-7.1,7.1v159H43.1a7.1,7.1,0,0,0,0,14.2H161.88a106.45,106.45,0,1,0,188.24,0H468.9a7.1,7.1,0,1,0,0-14.2Zm-369,0H71.48V163.71H99.87ZM241.81,198.22h28.38V274a107,107,0,0,0-28.38,0ZM156.64,315.64V136.1H185V300.24a107.48,107.48,0,0,0-14.14,15.4ZM256,471.77a92.26,92.26,0,1,1,92.26-92.25A92.26,92.26,0,0,1,256,471.77Zm99.36-156.13H341.11A107.48,107.48,0,0,0,327,300.24V106.48h28.39Zm85.16,0H412.13V135.1h28.39Z"/><path class="cls-1" d="M291.48,365.32A21.31,21.31,0,0,0,270.19,344,7.1,7.1,0,1,0,256,344h-7.1a7.1,7.1,0,1,0-14.19,0h-7.1a7.1,7.1,0,0,0,0,14.19v42.59a7.1,7.1,0,0,0,0,14.19h7.1a7.1,7.1,0,1,0,14.19,0h7.16a7.09,7.09,0,0,0,14.07,0h.06a21.28,21.28,0,0,0,15.86-35.48A21.21,21.21,0,0,0,291.48,365.32Zm-21.29,35.49H241.81v-14.2h28.38a7.1,7.1,0,1,1,0,14.2Zm0-28.39H241.81v-14.2h28.38a7.1,7.1,0,1,1,0,14.2Z"/></svg>