<?xml version="1.0" standalone="no"?>
<!DOCTYPE svg PUBLIC "-//W3C//DTD SVG 20010904//EN"
 "http://www.w3.org/TR/2001/REC-SVG-20010904/DTD/svg10.dtd">
<svg version="1.0" xmlns="http://www.w3.org/2000/svg"
 width="500.000000pt" height="500.000000pt" viewBox="0 0 500.000000 500.000000"
 preserveAspectRatio="xMidYMid meet">
<metadata>
Created by potrace 1.11, written by Peter Selinger 2001-2013
</metadata>
<g transform="translate(0.000000,500.000000) scale(0.100000,-0.100000)"
fill="#000000" stroke="none">
<path d="M2250 4990 c-30 -4 -80 -11 -110 -14 -112 -15 -295 -58 -423 -101
-549 -182 -1004 -534 -1322 -1024 -36 -55 -65 -103 -65 -105 0 -3 -13 -27 -28
-53 -114 -193 -237 -552 -268 -778 -3 -22 -7 -46 -9 -53 -26 -79 -27 -583 -1
-722 3 -14 7 -42 10 -62 19 -128 78 -343 132 -480 330 -843 1070 -1434 1969
-1573 22 -4 51 -9 65 -11 14 -3 129 -6 255 -8 339 -6 550 25 845 124 101 34
324 128 355 150 6 4 42 24 80 45 358 194 726 560 932 925 71 126 87 159 138
279 70 165 136 388 161 548 3 19 7 45 9 56 27 137 27 637 0 737 -2 8 -6 31 -9
50 -26 163 -92 391 -161 555 -50 118 -198 389 -247 450 -4 6 -33 44 -64 85
-379 503 -968 861 -1574 956 -19 3 -62 10 -95 16 -71 12 -496 18 -575 8z m510
-244 c19 -3 53 -8 76 -11 307 -44 645 -174 910 -351 99 -66 114 -78 209 -157
111 -93 202 -186 310 -318 189 -230 351 -555 425 -854 16 -66 32 -133 34 -150
3 -16 10 -66 18 -110 14 -88 18 -431 5 -535 -12 -102 -17 -140 -31 -205 -93
-447 -299 -828 -621 -1150 -195 -196 -366 -318 -620 -443 -169 -83 -419 -164
-580 -187 -22 -4 -47 -8 -55 -10 -84 -23 -509 -27 -635 -7 -44 8 -93 16 -110
18 -170 27 -419 110 -597 199 -447 225 -799 577 -1022 1025 -119 239 -187 470
-221 740 -12 100 -13 456 -1 525 2 17 8 53 12 80 4 28 8 55 10 60 1 6 4 21 7
35 37 185 106 384 193 560 59 118 140 256 186 315 5 6 36 46 70 90 58 75 244
268 314 325 264 217 601 389 904 462 110 26 117 28 165 34 22 3 46 7 53 9 7 3
45 7 85 11 40 3 74 8 76 10 6 5 390 -3 431 -10z"/>
<path d="M1949 4283 c-11 -13 -14 -106 -14 -507 l0 -491 -133 -1 c-111 -1
-135 -4 -145 -18 -9 -13 -12 -194 -12 -772 0 -814 -3 -772 50 -775 11 0 157
-1 324 -1 283 -1 305 1 318 18 10 14 13 159 13 770 0 652 -2 753 -15 764 -10
8 -57 12 -145 13 l-130 0 0 493 c0 545 3 524 -64 524 -19 0 -40 -7 -47 -17z"/>
<path d="M2705 3282 c-16 -2 -36 -11 -42 -20 -10 -12 -13 -182 -13 -769 l0
-752 21 -12 c13 -7 73 -11 145 -12 l124 0 0 -493 c0 -546 -3 -524 65 -524 63
0 60 -21 60 522 l0 495 133 0 c112 1 135 3 145 17 9 13 12 198 11 769 -1 413
-2 755 -3 759 0 4 -11 10 -23 14 -22 7 -563 12 -623 6z"/>
</g>
</svg>
